# xmcd
#
# Track frame offsets:
#	150
#	14116
#	29987
#	47965
#	70043
#
# Disc length: 4603 seconds
#
# Revision: 2
# Processed by: cddbd v1.5.2PL0 Copyright (c) Steve Scherf et al.
# Submitted via: audiograbber 1.81.03
#
DISCID=4911f905
DTITLE=NTALARAS - ÔA KALYTERA ELLHNIKA TRAGOUDIA
DYEAR=2005
DGENRE=Acoustic
TTITLE0=TO PEPROMENO
TTITLE1=ENAS KOMPOS I KARDIA MOU
TTITLE2=AGRIGENTO
TTITLE3=KLITOTHIKA
TTITLE4=VIMARADIO
EXTD=
EXTT0=
EXTT1=
EXTT2=
EXTT3=
EXTT4=
PLAYORDER=
